<?xml version="1.0" encoding="UTF-8"?>
<svg version="1.1" xmlns="http://www.w3.org/2000/svg" width="91" height="114">
<path d="M0 0 C30.03 0 60.06 0 91 0 C91 37.62 91 75.24 91 114 C60.97 114 30.94 114 0 114 C0 76.38 0 38.76 0 0 Z " fill="#0D2A78" transform="translate(0,0)"/>
<path d="M0 0 C30.03 0 60.06 0 91 0 C91 7.59 91 15.18 91 23 C90.01 22.34 89.02 21.68 88 21 C88 19.68 88 18.36 88 17 C87.01 17 86.02 17 85 17 C84.505 18.485 84.505 18.485 84 20 C82.92621094 19.44570313 81.85242188 18.89140625 80.74609375 18.3203125 C79.31006109 17.58821742 77.87385382 16.85646477 76.4375 16.125 C75.73302734 15.76019531 75.02855469 15.39539062 74.30273438 15.01953125 C68.05052379 11.85020791 62.1028617 9.89650827 55.0625 9.375 C54.10472656 9.30023438 53.14695313 9.22546875 52.16015625 9.1484375 C51.44730469 9.09945313 50.73445313 9.05046875 50 9 C50 9.99 50 10.98 50 12 C50.62648437 11.97679687 51.25296875 11.95359375 51.8984375 11.9296875 C52.71570312 11.91164063 53.53296875 11.89359375 54.375 11.875 C55.18710937 11.85179687 55.99921875 11.82859375 56.8359375 11.8046875 C59 12 59 12 61 14 C60.30132812 13.96519531 59.60265625 13.93039062 58.8828125 13.89453125 C57.97273438 13.86746094 57.06265625 13.84039062 56.125 13.8125 C55.22007813 13.77769531 54.31515625 13.74289062 53.3828125 13.70703125 C52.59648438 13.80371094 51.81015625 13.90039062 51 14 C48.7226499 16.81509993 48.7226499 16.81509993 49 20 C51.64 20 54.28 20 57 20 C57 20.66 57 21.32 57 22 C55.700625 21.979375 54.40125 21.95875 53.0625 21.9375 C51.70834367 21.91600546 50.35243917 21.92851801 49 22 C47.03177114 23.96822886 47.33751619 27.34808709 47 30 C47.763125 29.773125 48.52625 29.54625 49.3125 29.3125 C54.57115852 28.86685097 59.01459138 30.42986241 64 32 C62.68 32.99 61.36 33.98 60 35 C60.33 35.66 60.66 36.32 61 37 C58.37066642 37.67611435 56.42641492 38.08557808 53.7421875 37.546875 C44.46386356 35.69649701 35.26779962 36.27962997 27 41 C24.78268473 42.53047014 22.66880951 44.11024786 20.59375 45.828125 C19 47 19 47 17 47 C16.7525 47.639375 16.505 48.27875 16.25 48.9375 C15 52 15 52 14.046875 53.84375 C10.64875535 60.63998929 9.81087726 67.49938537 9 75 C8.67 75 8.34 75 8 75 C7.505 72.525 7.505 72.525 7 70 C6.34 70 5.68 70 5 70 C5.0309375 71.60875 5.0309375 71.60875 5.0625 73.25 C5.0142016 76.14790424 4.86844115 78.28612141 4 81 C3.34 81 2.68 81 2 81 C0.87910455 68.32987825 0.89231906 55.71132024 1 43 C0.67 43 0.34 43 0 43 C0 28.81 0 14.62 0 0 Z " fill="#0B2A7A" transform="translate(0,0)"/>
<path d="M0 0 C0.495 1.485 0.495 1.485 1 3 C0.34 3 -0.32 3 -1 3 C-1 4.32 -1 5.64 -1 7 C-2.98 7 -4.96 7 -7 7 C-6.505 10.465 -6.505 10.465 -6 14 C-6.66 14 -7.32 14 -8 14 C-8 13.34 -8 12.68 -8 12 C-8.99 12.99 -9.98 13.98 -11 15 C-10.34 15 -9.68 15 -9 15 C-9 16.32 -9 17.64 -9 19 C-9.66 19 -10.32 19 -11 19 C-11 19.99 -11 20.98 -11 22 C-10.01 22 -9.02 22 -8 22 C-7.505 20.515 -7.505 20.515 -7 19 C-4.36 19 -1.72 19 1 19 C1 18.34 1 17.68 1 17 C2.65 17.33 4.3 17.66 6 18 C6 18.99 6 19.98 6 21 C4.68 20.67 3.36 20.34 2 20 C2 20.66 2 21.32 2 22 C3.32 22 4.64 22 6 22 C6 22.99 6 23.98 6 25 C-1.75 26.125 -1.75 26.125 -4 25 C-4 24.01 -4 23.02 -4 22 C-9.04257875 24.19082912 -13.16968375 26.04694656 -16 31 C-16.4871351 34.97827 -16.10188936 37.58442978 -14 41 C-12.081875 40.9690625 -12.081875 40.9690625 -10.125 40.9375 C-6.25 40.875 -6.25 40.875 -4 42 C-2.62279543 48.70638746 -3.00879398 55.28182584 -4 62 C-2.576875 61.2575 -2.576875 61.2575 -1.125 60.5 C2 59 2 59 4 59 C4.268125 58.4225 4.53625 57.845 4.8125 57.25 C6 55 6 55 7.5 53.25 C9.23650903 50.64523645 9.78970772 48.13737952 10.4609375 45.10546875 C11.28378658 41.89158721 12.61955412 39.01188191 14 36 C13.34 36 12.68 36 12 36 C12.28875 35.443125 12.5775 34.88625 12.875 34.3125 C14.0413253 31.91505355 15.0339881 29.48403061 16 27 C14.35 26.67 12.7 26.34 11 26 C11.33 25.34 11.66 24.68 12 24 C13.134375 24.33 14.26875 24.66 15.4375 25 C18.54376639 26.04504273 18.54376639 26.04504273 20 26 C20 25.01 20 24.02 20 23 C20.66 23 21.32 23 22 23 C24.39183783 34.95918915 22.19389634 44.50698589 15.65625 54.74609375 C10.38208845 61.92343152 1.81659669 67.37721086 -7 69 C-14.41021128 69.55047284 -20.25466938 69.1400677 -27 66 C-28.7015625 65.319375 -28.7015625 65.319375 -30.4375 64.625 C-33 63 -33 63 -33.9375 60.5 C-34 58 -34 58 -33 55 C-32.01 54.505 -32.01 54.505 -31 54 C-30.08474954 51.01179816 -29.74774707 48.11477534 -30 45 C-32.34079757 42.64352999 -32.34079757 42.64352999 -35 41 C-35 39.68 -35 38.36 -35 37 C-35.99 36.67 -36.98 36.34 -38 36 C-38.6875 33.9375 -38.6875 33.9375 -39 32 C-39.66 32 -40.32 32 -41 32 C-41 31.34 -41 30.68 -41 30 C-41.99 30 -42.98 30 -44 30 C-44.125 24.25 -44.125 24.25 -43 22 C-43.66 21.67 -44.32 21.34 -45 21 C-43.68 19.68 -42.36 18.36 -41 17 C-40.34 17.66 -39.68 18.32 -39 19 C-38.0409375 18.1028125 -38.0409375 18.1028125 -37.0625 17.1875 C-33.02929104 14.30663645 -28.06263123 12 -23 12 C-22.360625 11.484375 -21.72125 10.96875 -21.0625 10.4375 C-20.381875 9.963125 -19.70125 9.48875 -19 9 C-18.01 9.33 -17.02 9.66 -16 10 C-15.67 9.01 -15.34 8.02 -15 7 C-14.01 6.67 -13.02 6.34 -12 6 C-11.67 5.01 -11.34 4.02 -11 3 C-11.80824219 3.01160156 -12.61648437 3.02320313 -13.44921875 3.03515625 C-14.51785156 3.04417969 -15.58648437 3.05320312 -16.6875 3.0625 C-18.27111328 3.07990234 -18.27111328 3.07990234 -19.88671875 3.09765625 C-22.72410262 3.00865425 -25.2438919 2.64939838 -28 2 C-28 2.66 -28 3.32 -28 4 C-29.96466413 5.06775224 -31.96855359 6.06553465 -34 7 C-34.66 6.67 -35.32 6.34 -36 6 C-34.6312552 5.03275368 -33.25464396 4.0766356 -31.875 3.125 C-31.10929687 2.59132813 -30.34359375 2.05765625 -29.5546875 1.5078125 C-21.13733044 -3.46023004 -8.97944218 -3.9676605 0 0 Z " fill="#F6F8FB" transform="translate(58,38)"/>
<path d="M0 0 C2.4375 1.1875 2.4375 1.1875 5 3 C5.8125 5.6875 5.8125 5.6875 6 8 C7.32 8.33 8.64 8.66 10 9 C9.46930939 12.82097239 8.50298434 15.06171403 6 18 C6.99 17.67 7.98 17.34 9 17 C7.99806563 20.79303725 7.18975773 23.71536341 5 27 C4.731875 28.258125 4.46375 29.51625 4.1875 30.8125 C2.87954421 36.37131211 0.04217142 39.54130613 -4.625 42.875 C-7 44 -7 44 -10 44 C-10 37.4 -10 30.8 -10 24 C-13.3 24 -16.6 24 -20 24 C-22.5702454 21.4297546 -22.87421649 19.64289348 -23.5625 16.125 C-22.74673522 11.59297342 -20.527655 8.90017623 -17 6 C-14.60741899 4.91593635 -12.61279924 4.47030386 -10 4 C-10 4.99 -10 5.98 -10 7 C-6.7 7 -3.4 7 0 7 C0 6.01 0 5.02 0 4 C-1.32 4 -2.64 4 -4 4 C-4 3.34 -4 2.68 -4 2 C-2.68 2.33 -1.36 2.66 0 3 C0 2.01 0 1.02 0 0 Z " fill="#0F2A78" transform="translate(64,56)"/>
<path d="M0 0 C13.75205809 -1.26294411 24.5806584 4.18098902 35.55078125 11.81640625 C37.97202337 13.97505752 38.73405792 14.8302579 39 18 C35.88801935 16.50163895 32.9465385 14.80066242 30 13 C30 13.66 30 14.32 30 15 C29.01 15 28.02 15 27 15 C30.17539556 18.42578949 30.17539556 18.42578949 34 21 C33.67 22.98 33.34 24.96 33 27 C31.35 26.67 29.7 26.34 28 26 C28 26.99 28 27.98 28 29 C24.98420444 28.40995304 23.13863077 27.53822367 20.75 25.625 C14.34315516 20.90847167 7.8413126 19.52638441 0 19 C0 18.01 0 17.02 0 16 C4.455 15.505 4.455 15.505 9 15 C9 14.34 9 13.68 9 13 C8.34 13 7.68 13 7 13 C7 12.34 7 11.68 7 11 C4.36 11 1.72 11 -1 11 C-1.6875 9.1875 -1.6875 9.1875 -2 7 C-1.0625 5.25 -1.0625 5.25 1 4 C3.71896511 3.7484422 6.25811768 3.86515333 9 4 C6.03 3.67 3.06 3.34 0 3 C0 2.01 0 1.02 0 0 Z " fill="#1C3176" transform="translate(50,9)"/>
<path d="M0 0 C5.61 0.33 11.22 0.66 17 1 C16.67 2.32 16.34 3.64 16 5 C15.01 5.33 14.02 5.66 13 6 C12.67 6.66 12.34 7.32 12 8 C11.236875 8.12375 10.47375 8.2475 9.6875 8.375 C6.40472026 9.13843715 5.1786618 10.49857349 3 13 C3 12.01 3 11.02 3 10 C1.06126858 10.95583968 -0.8759433 11.91476192 -2.8125 12.875 C-4.43091797 13.67550781 -4.43091797 13.67550781 -6.08203125 14.4921875 C-9.07838265 15.97221139 -9.07838265 15.97221139 -12 18 C-12.66 17.34 -13.32 16.68 -14 16 C-14.66 16.99 -15.32 17.98 -16 19 C-15.67 19.99 -15.34 20.98 -15 22 C-15.27571139 24.00875442 -15.60235737 26.01178687 -16 28 C-15.01 28.33 -14.02 28.66 -13 29 C-13.99 29 -14.98 29 -16 29 C-17.66050907 34.18909085 -17.57183474 38.6581135 -15.43359375 43.67578125 C-14.78237148 44.89567649 -14.11674035 46.10798044 -13.4375 47.3125 C-12.21637459 49.52248402 -11.08686531 51.7166944 -10 54 C-10.33 54.66 -10.66 55.32 -11 56 C-17.8849674 47.88557414 -21.56082411 39.75487907 -21.1796875 29.01953125 C-20.45883253 20.91774821 -18.021859 13.50824433 -13 7 C-8.98777278 4.23942079 -4.68336062 3.12315888 0 2 C0 1.34 0 0.68 0 0 Z " fill="#1B2D68" transform="translate(30,40)"/>
<path d="M0 0 C0.66 0 1.32 0 2 0 C2 1.65 2 3.3 2 5 C3.32 5.33 4.64 5.66 6 6 C5.67 7.98 5.34 9.96 5 12 C5.99 11.67 6.98 11.34 8 11 C6.99806563 14.79303725 6.18975773 17.71536341 4 21 C3.731875 22.258125 3.46375 23.51625 3.1875 24.8125 C1.87954421 30.37131211 -0.95782858 33.54130613 -5.625 36.875 C-8 38 -8 38 -11 38 C-11 31.4 -11 24.8 -11 18 C-9.68 17.34 -8.36 16.68 -7 16 C-6.67 15.01 -6.34 14.02 -6 13 C-1.87878788 9.88124488 -1.87878788 9.88124488 1.3125 10.3125 C1.869375 10.539375 2.42625 10.76625 3 11 C2.67 9.68 2.34 8.36 2 7 C1.34 7 0.68 7 0 7 C-1.125 2.25 -1.125 2.25 0 0 Z " fill="#142F7A" transform="translate(65,62)"/>
<path d="M0 0 C0.91007812 0.28746094 1.82015625 0.57492188 2.7578125 0.87109375 C3.45648438 1.09925781 4.15515625 1.32742187 4.875 1.5625 C4.875 2.8825 4.875 4.2025 4.875 5.5625 C6.855 5.5625 8.835 5.5625 10.875 5.5625 C10.3490625 6.490625 10.3490625 6.490625 9.8125 7.4375 C9.503125 8.13875 9.19375 8.84 8.875 9.5625 C9.205 10.2225 9.535 10.8825 9.875 11.5625 C9.215 11.5625 8.555 11.5625 7.875 11.5625 C7.875 12.5525 7.875 13.5425 7.875 14.5625 C7.215 14.5625 6.555 14.5625 5.875 14.5625 C5.545 15.2225 5.215 15.8825 4.875 16.5625 C3.555 15.2425 2.235 13.9225 0.875 12.5625 C0.215 13.2225 -0.445 13.8825 -1.125 14.5625 C-3.25 14.1875 -3.25 14.1875 -5.125 13.5625 C-5.125 14.2225 -5.125 14.8825 -5.125 15.5625 C-7.88764289 16.15982819 -10.28532769 16.5625 -13.125 16.5625 C-13.455 17.2225 -13.785 17.8825 -14.125 18.5625 C-15.115 18.5625 -16.105 18.5625 -17.125 18.5625 C-17.125 17.5725 -17.125 16.5825 -17.125 15.5625 C-16.465 15.5625 -15.805 15.5625 -15.125 15.5625 C-15.125 14.2425 -15.125 12.9225 -15.125 11.5625 C-15.785 11.5625 -16.445 11.5625 -17.125 11.5625 C-16.795 10.5725 -16.465 9.5825 -16.125 8.5625 C-15.465 8.5625 -14.805 8.5625 -14.125 8.5625 C-14.125 9.2225 -14.125 9.8825 -14.125 10.5625 C-13.465 10.5625 -12.805 10.5625 -12.125 10.5625 C-12.455 8.2525 -12.785 5.9425 -13.125 3.5625 C-11.145 3.5625 -9.165 3.5625 -7.125 3.5625 C-7.125 2.2425 -7.125 0.9225 -7.125 -0.4375 C-4.30685434 -1.84657283 -2.95222796 -0.94622691 0 0 Z " fill="#0D2A77" transform="translate(64.125,41.4375)"/>
<path d="M0 0 C13.75205809 -1.26294411 24.5806584 4.18098902 35.55078125 11.81640625 C37.97202337 13.97505752 38.73405792 14.8302579 39 18 C35.88801935 16.50163895 32.9465385 14.80066242 30 13 C30 13.66 30 14.32 30 15 C27.39197919 15.98924927 26.30458627 16.12091616 23.66796875 15.07421875 C22.84941406 14.61660156 22.03085938 14.15898437 21.1875 13.6875 C14.24775724 10.02485799 7.74578443 8.66743721 0 8 C-0.33 8.99 -0.66 9.98 -1 11 C-1.6875 9.1875 -1.6875 9.1875 -2 7 C-1.0625 5.25 -1.0625 5.25 1 4 C3.71896511 3.7484422 6.25811768 3.86515333 9 4 C6.03 3.67 3.06 3.34 0 3 C0 2.01 0 1.02 0 0 Z " fill="#1C3278" transform="translate(50,9)"/>
<path d="M0 0 C13.75205809 -1.26294411 24.5806584 4.18098902 35.55078125 11.81640625 C37.97202337 13.97505752 38.73405792 14.8302579 39 18 C35.82166979 16.53419474 33.17656437 14.71476626 30.375 12.625 C20.692938 5.84614728 11.54191784 4.16958101 0 3 C0 2.01 0 1.02 0 0 Z " fill="#DEE3F2" transform="translate(50,9)"/>
<path d="M0 0 C12.41753816 -0.60084862 22.40860798 3.33916571 31.81640625 11.59375 C33 13 33 13 33 15 C29.37564395 14.38766587 27.25916517 12.85153793 24.375 10.625 C16.77975895 5.18230156 9.17343731 3.73979333 0 3 C0 2.01 0 1.02 0 0 Z " fill="#DFE7F7" transform="translate(50,17)"/>
<path d="M0 0 C1.65 0 3.3 0 5 0 C5 0.66 5 1.32 5 2 C6.65 2 8.3 2 10 2 C10 2.99 10 3.98 10 5 C9.01 4.67 8.02 4.34 7 4 C4.40882687 4.00156224 4.40882687 4.00156224 2 5 C0.68931667 7.44288628 0.68931667 7.44288628 0 10 C-1 11 -1 11 -3.50390625 11.09765625 C-5.01791016 11.08025391 -5.01791016 11.08025391 -6.5625 11.0625 C-7.57441406 11.05347656 -8.58632813 11.04445313 -9.62890625 11.03515625 C-10.41136719 11.02355469 -11.19382812 11.01195312 -12 11 C-10.6015209 7.5912072 -9.14993067 6.12606165 -6 4.25 C-5.29875 3.82203125 -4.5975 3.3940625 -3.875 2.953125 C-2 2 -2 2 0 2 C0 1.34 0 0.68 0 0 Z " fill="#11276D" transform="translate(30,40)"/>
<path d="M0 0 C2.4375 1.1875 2.4375 1.1875 5 3 C5.8125 5.6875 5.8125 5.6875 6 8 C7.32 8.33 8.64 8.66 10 9 C9.6875 11.375 9.6875 11.375 9 14 C8.01 14.66 7.02 15.32 6 16 C6.33 14.68 6.66 13.36 7 12 C6.01 12.33 5.02 12.66 4 13 C3.34 12.34 2.68 11.68 2 11 C2.375 8.375 2.375 8.375 3 6 C2.34 6 1.68 6 1 6 C1 8.31 1 10.62 1 13 C1.66 13 2.32 13 3 13 C3.33 14.32 3.66 15.64 4 17 C2 17 2 17 0.52734375 15.57421875 C-0.25962891 14.64029297 -0.25962891 14.64029297 -1.0625 13.6875 C-1.58972656 13.07261719 -2.11695313 12.45773438 -2.66015625 11.82421875 C-4 10 -4 10 -5 7 C-3.35 7 -1.7 7 0 7 C0 6.01 0 5.02 0 4 C-1.32 4 -2.64 4 -4 4 C-4 3.34 -4 2.68 -4 2 C-2.02 2.495 -2.02 2.495 0 3 C0 2.01 0 1.02 0 0 Z " fill="#11266A" transform="translate(64,56)"/>
<path d="M0 0 C0.33 0 0.66 0 1 0 C1.16988369 2.18725251 1.33575269 4.37481701 1.5 6.5625 C1.5928125 7.78066406 1.685625 8.99882813 1.78125 10.25390625 C2 14 2 14 1.80859375 17.5078125 C2.04022267 21.73385853 3.52783165 24.70435479 5.5625 28.3125 C6.78362541 30.52248402 7.91313469 32.7166944 9 35 C8.67 35.66 8.34 36.32 8 37 C0.47828435 28.13512084 -2.7364977 19.59983881 -2 8 C-1.45825437 5.27726121 -0.76390159 2.67365556 0 0 Z " fill="#F2F9FD" transform="translate(11,59)"/>
<path d="M0 0 C10.77955439 -0.69545512 18.01197805 2.78111755 26.3828125 9.4140625 C27.18332031 10.19910156 27.18332031 10.19910156 28 11 C28 11.66 28 12.32 28 13 C24.98420444 12.40995304 23.13863077 11.53822367 20.75 9.625 C14.34315516 4.90847167 7.8413126 3.52638441 0 3 C0 2.01 0 1.02 0 0 Z " fill="#E2E9F7" transform="translate(50,25)"/>
<path d="M0 0 C1.65 0 3.3 0 5 0 C5 0.99 5 1.98 5 3 C5.99 3.33 6.98 3.66 8 4 C7 7 7 7 5 8 C4.67 8 4.34 8 4 8 C4 9.65 4 11.3 4 13 C2.68 13 1.36 13 0 13 C-0.33 13.66 -0.66 14.32 -1 15 C-1.99 15 -2.98 15 -4 15 C-4 14.01 -4 13.02 -4 12 C-3.34 12 -2.68 12 -2 12 C-2 10.68 -2 9.36 -2 8 C-2.66 8 -3.32 8 -4 8 C-3.67 7.01 -3.34 6.02 -3 5 C-2.34 5 -1.68 5 -1 5 C-1 5.66 -1 6.32 -1 7 C-0.34 7 0.32 7 1 7 C0.67 4.69 0.34 2.38 0 0 Z " fill="#313C75" transform="translate(51,45)"/>
<path d="M0 0 C1.65 0.33 3.3 0.66 5 1 C5 1.99 5 2.98 5 4 C3.68 3.67 2.36 3.34 1 3 C1 3.66 1 4.32 1 5 C2.32 5 3.64 5 5 5 C5 5.99 5 6.98 5 8 C-2.75 9.125 -2.75 9.125 -5 8 C-5 7.01 -5 6.02 -5 5 C-5.598125 5.33 -6.19625 5.66 -6.8125 6 C-9 7 -9 7 -12 7 C-12 6.34 -12 5.68 -12 5 C-11.01 5 -10.02 5 -9 5 C-8.67 4.01 -8.34 3.02 -8 2 C-5.36 2 -2.72 2 0 2 C0 1.34 0 0.68 0 0 Z " fill="#C2C9E9" transform="translate(59,55)"/>
<path d="M0 0 C3.96 0 7.92 0 12 0 C11.67 1.32 11.34 2.64 11 4 C10.01 4.33 9.02 4.66 8 5 C7.67 5.66 7.34 6.32 7 7 C5.34385343 7.38218767 3.67542976 7.71395102 2 8 C1.01 8.495 1.01 8.495 0 9 C0 7.68 0 6.36 0 5 C-1.65 5.66 -3.3 6.32 -5 7 C-4.4375 5.0625 -4.4375 5.0625 -3 3 C0.625 2.25 0.625 2.25 4 2 C4.33 2.66 4.66 3.32 5 4 C5 3.01 5 2.02 5 1 C3.35 1 1.7 1 0 1 C0 0.67 0 0.34 0 0 Z " fill="#C7CEE4" transform="translate(35,41)"/>
<path d="M0 0 C0.33 0.99 0.66 1.98 1 3 C3.97 3.495 3.97 3.495 7 4 C5.75023244 7.65316671 5.32901247 8.78065836 2 11 C0.68 11 -0.64 11 -2 11 C-2 9.02 -2 7.04 -2 5 C-1.67 5 -1.34 5 -1 5 C-0.67 3.35 -0.34 1.7 0 0 Z " fill="#102771" transform="translate(57,88)"/>
<path d="M0 0 C6.43124858 -0.40195304 11.12767309 0.27356251 17 3 C17.33 3.66 17.66 4.32 18 5 C12 4.33333333 6 3.66666667 0 3 C0 2.01 0 1.02 0 0 Z " fill="#E4E8F7" transform="translate(50,17)"/>
<path d="M0 0 C0.66 0 1.32 0 2 0 C2 1.65 2 3.3 2 5 C3.32 5.33 4.64 5.66 6 6 C5.67 7.98 5.34 9.96 5 12 C5.99 11.67 6.98 11.34 8 11 C7.67 12.65 7.34 14.3 7 16 C6.34 15.67 5.68 15.34 5 15 C4.34 15.66 3.68 16.32 3 17 C3 15.68 3 14.36 3 13 C2.01 12.34 1.02 11.68 0 11 C0.99 11 1.98 11 3 11 C2.67 9.68 2.34 8.36 2 7 C1.34 7 0.68 7 0 7 C-1.125 2.25 -1.125 2.25 0 0 Z " fill="#405397" transform="translate(65,62)"/>
<path d="M0 0 C3.37503669 1.1858237 5.64722731 2.27573689 8 5 C7 7 7 7 5.375 7.875 C1.54351691 8.076657 -0.80586237 6.02704888 -4 4 C-2.68 3.67 -1.36 3.34 0 3 C0 2.01 0 1.02 0 0 Z " fill="#1E327B" transform="translate(73,17)"/>
<path d="M0 0 C0.99 0 1.98 0 3 0 C3.36732268 1.9940374 3.68909515 3.99639094 4 6 C4.21269531 7.22976562 4.21269531 7.22976562 4.4296875 8.484375 C4.55601563 9.35578125 4.68234375 10.2271875 4.8125 11.125 C4.94269531 11.95257813 5.07289062 12.78015625 5.20703125 13.6328125 C4.92192263 16.89273372 3.43592556 17.94720059 1 20 C1.01740234 18.83984375 1.01740234 18.83984375 1.03515625 17.65625 C1.08709845 11.66063636 0.91184156 5.92697017 0 0 Z " fill="#11276B" transform="translate(79,59)"/>
<path d="M0 0 C0.99 0.33 1.98 0.66 3 1 C1.68 2.32 0.36 3.64 -1 5 C0.65 5.33 2.3 5.66 4 6 C1.98085442 7.08168513 0.1704395 7.95868133 -2.0625 8.5 C-4.30437677 8.96516768 -4.30437677 8.96516768 -7 11 C-3.675 2.45 -3.675 2.45 0 0 Z " fill="#4055A4" transform="translate(20,45)"/>
<path d="M0 0 C1.77049689 -0.05410687 3.54146849 -0.09284119 5.3125 -0.125 C6.29863281 -0.14820313 7.28476562 -0.17140625 8.30078125 -0.1953125 C11 0 11 0 14 2 C13 3 13 3 10.05859375 3.09765625 C8.26615234 3.08025391 8.26615234 3.08025391 6.4375 3.0625 C4.64119141 3.04896484 4.64119141 3.04896484 2.80859375 3.03515625 C1.88175781 3.02355469 0.95492187 3.01195312 0 3 C0 2.01 0 1.02 0 0 Z " fill="#E1EAF9" transform="translate(50,9)"/>
<path d="M0 0 C0.66 0 1.32 0 2 0 C2 0.99 2 1.98 2 3 C2.99 3.33 3.98 3.66 5 4 C4 7 4 7 2 8 C1.67 8 1.34 8 1 8 C1 9.65 1 11.3 1 13 C0.01 12.34 -0.98 11.68 -2 11 C-1.34 11 -0.68 11 0 11 C-0.33 10.34 -0.66 9.68 -1 9 C-1.18704404 6.30986661 -1.08581391 3.70313823 -1 1 C-0.67 0.67 -0.34 0.34 0 0 Z " fill="#42549B" transform="translate(54,45)"/>
<path d="M0 0 C3 1 3 1 4.640625 3.65234375 C5.17171875 4.73644531 5.7028125 5.82054688 6.25 6.9375 C6.79140625 8.01902344 7.3328125 9.10054687 7.890625 10.21484375 C8.25671875 11.13394531 8.6228125 12.05304688 9 13 C8.67 13.66 8.34 14.32 8 15 C0 5.57142857 0 5.57142857 0 0 Z " fill="#D4DEF3" transform="translate(11,81)"/>
<path d="M0 0 C0.99 0.66 1.98 1.32 3 2 C2.34 3.32 1.68 4.64 1 6 C-5.4 5.50769231 -5.4 5.50769231 -8.4375 2.9375 C-9.2109375 1.9784375 -9.2109375 1.9784375 -10 1 C-8.8553125 1.495 -8.8553125 1.495 -7.6875 2 C-5.00930865 3.17436686 -5.00930865 3.17436686 -2 3 C-1.34 2.01 -0.68 1.02 0 0 Z " fill="#1A3685" transform="translate(68,37)"/>
<path d="M0 0 C0.66 0 1.32 0 2 0 C2.66 2.31 3.32 4.62 4 7 C4.66 7 5.32 7 6 7 C5.34 8.98 4.68 10.96 4 13 C2 12 2 12 0.875 9.875 C-0.15945114 6.47608911 -0.1385722 3.53359114 0 0 Z " fill="#2B407D" transform="translate(12,73)"/>
<path d="M0 0 C2.33944736 0.28730055 4.6739143 0.61936779 7 1 C6.67 1.99 6.34 2.98 6 4 C5.34 4 4.68 4 4 4 C4 4.99 4 5.98 4 7 C2.68 7.33 1.36 7.66 0 8 C-0.38063221 5.6739143 -0.71269945 3.33944736 -1 1 C-0.67 0.67 -0.34 0.34 0 0 Z " fill="#0A2370" transform="translate(55,50)"/>
<path d="M0 0 C2.64 0.33 5.28 0.66 8 1 C8 1.99 8 2.98 8 4 C5.36 4.33 2.72 4.66 0 5 C-0.33 4.01 -0.66 3.02 -1 2 C-0.67 1.34 -0.34 0.68 0 0 Z " fill="#DAE3F5" transform="translate(56,59)"/>
<path d="M0 0 C1.485 0.99 1.485 0.99 3 2 C3 2.66 3 3.32 3 4 C5.47266765 3.65555119 5.47266765 3.65555119 8 3 C8.33 2.34 8.66 1.68 9 1 C9 1.66 9 2.32 9 3 C9.66 3.33 10.32 3.66 11 4 C10.01 4.66 9.02 5.32 8 6 C8 6.66 8 7.32 8 8 C7.01 8.33 6.02 8.66 5 9 C5 8.01 5 7.02 5 6 C4.360625 5.7525 3.72125 5.505 3.0625 5.25 C1 4 1 4 0.25 1.875 C0.1675 1.25625 0.085 0.6375 0 0 Z " fill="#405AA0" transform="translate(64,53)"/>
<path d="M0 0 C0.33 1.32 0.66 2.64 1 4 C1.66 4 2.32 4 3 4 C2.67 6.64 2.34 9.28 2 12 C2.99 12.33 3.98 12.66 5 13 C4.01 13 3.02 13 2 13 C1.67 13.66 1.34 14.32 1 15 C0.63807496 12.87630763 0.28568253 10.7509887 -0.0625 8.625 C-0.25972656 7.44164062 -0.45695313 6.25828125 -0.66015625 5.0390625 C-1 2 -1 2 0 0 Z " fill="#8086A5" transform="translate(12,56)"/>
<path d="M0 0 C0.99 0 1.98 0 3 0 C4.23921302 2.97411124 5.30058404 5.85262818 6 9 C5.01 9.495 5.01 9.495 4 10 C3.731875 9.38125 3.46375 8.7625 3.1875 8.125 C2.04443152 5.7004767 2.04443152 5.7004767 -1 4 C-0.67 2.68 -0.34 1.36 0 0 Z " fill="#20347D" transform="translate(85,17)"/>
<path d="M0 0 C0.8125 1.6875 0.8125 1.6875 1 4 C-1.4375 6.75 -1.4375 6.75 -4 9 C-4.66 8.67 -5.32 8.34 -6 8 C-5.65120368 4.74456771 -4.97866739 3.98126893 -2.4375 1.75 C-1.633125 1.1725 -0.82875 0.595 0 0 Z " fill="#11286F" transform="translate(70,96)"/>
<path d="M0 0 C0.99 0.99 1.98 1.98 3 3 C2.01 3.495 2.01 3.495 1 4 C1.66 5.98 2.32 7.96 3 10 C2.34 10 1.68 10 1 10 C0.71125 9.38125 0.4225 8.7625 0.125 8.125 C-0.93720042 5.86674235 -0.93720042 5.86674235 -3 4 C-2.01 2.68 -1.02 1.36 0 0 Z " fill="#D5D7E4" transform="translate(16,55)"/>
<path d="M0 0 C1.258125 0.12375 2.51625 0.2475 3.8125 0.375 C4.87404297 0.47941406 4.87404297 0.47941406 5.95703125 0.5859375 C8 1 8 1 11 3 C11 3.99 11 4.98 11 6 C9.35 6 7.7 6 6 6 C6.33 5.34 6.66 4.68 7 4 C4.69 3.01 2.38 2.02 0 1 C0 0.67 0 0.34 0 0 Z " fill="#11266B" transform="translate(62,14)"/>
<path d="M0 0 C0.33 0 0.66 0 1 0 C1.2358396 5.77807024 0.86783046 10.51324804 -1 16 C-1.33 16 -1.66 16 -2 16 C-2.20674944 10.21101581 -1.59162079 5.57067277 0 0 Z " fill="#CCD5EA" transform="translate(11,59)"/>
<path d="M0 0 C0 0.99 0 1.98 0 3 C-3.63 3 -7.26 3 -11 3 C-10 1 -10 1 -8.3125 0.375 C-5.51555886 -0.07855802 -2.82858003 -0.06428591 0 0 Z " fill="#091F63" transform="translate(49,33)"/>
<path d="M0 0 C1.32 0.66 2.64 1.32 4 2 C2.35 2 0.7 2 -1 2 C-1 2.66 -1 3.32 -1 4 C-2.96466413 5.06775224 -4.96855359 6.06553465 -7 7 C-7.66 6.67 -8.32 6.34 -9 6 C-6.03 4.02 -3.06 2.04 0 0 Z " fill="#AFBAE8" transform="translate(31,38)"/>
<path d="M0 0 C0 0.66 0 1.32 0 2 C-1.24176695 2.70226141 -2.49385599 3.38629109 -3.75 4.0625 C-4.79414063 4.63677734 -4.79414063 4.63677734 -5.859375 5.22265625 C-8.36140628 6.1312406 -9.5332355 5.88336837 -12 5 C-12 4.34 -12 3.68 -12 3 C-10.63875 2.814375 -10.63875 2.814375 -9.25 2.625 C-6.00672409 2.00129309 -3.21185172 0 0 0 Z " fill="#102468" transform="translate(34,36)"/>
<path d="M0 0 C4.75 1.875 4.75 1.875 7 3 C6.67 4.32 6.34 5.64 6 7 C5.13375 6.319375 5.13375 6.319375 4.25 5.625 C2.2199667 4.15886484 0.26460157 3.05142216 -2 2 C-1.34 1.34 -0.68 0.68 0 0 Z " fill="#CED7EB" transform="translate(67,20)"/>
<path d="M0 0 C1.65 0.33 3.3 0.66 5 1 C5 1.99 5 2.98 5 4 C3.02 4.33 1.04 4.66 -1 5 C-1.33 4.01 -1.66 3.02 -2 2 C-1.34 2 -0.68 2 0 2 C0 1.34 0 0.68 0 0 Z " fill="#6F7AAE" transform="translate(59,55)"/>
<path d="M0 0 C1.2077558 3.62326739 0.54311128 4.64146369 -1 8 C-1.33 7.01 -1.66 6.02 -2 5 C-2.99 5.33 -3.98 5.66 -5 6 C-3.63016497 2.83884224 -3.0109362 2.0072908 0 0 Z " fill="#37416F" transform="translate(35,45)"/>
<path d="M0 0 C3.8063457 0.67170806 7.35206816 1.72746564 11 3 C10.01 3.66 9.02 4.32 8 5 C5.95703125 4.5390625 5.95703125 4.5390625 3.8125 3.625 C3.09707031 3.32851563 2.38164063 3.03203125 1.64453125 2.7265625 C1.10183594 2.48679687 0.55914062 2.24703125 0 2 C0 1.34 0 0.68 0 0 Z " fill="#263672" transform="translate(56,28)"/>
<path d="M0 0 C0.66 0 1.32 0 2 0 C2.95261487 4.76307437 3.08333357 9.1666528 3 14 C2.67 14 2.34 14 2 14 C2 12.02 2 10.04 2 8 C1.34 8 0.68 8 0 8 C0 5.36 0 2.72 0 0 Z " fill="#8E9CCB" transform="translate(78,61)"/>
<path d="M0 0 C2.475 0.99 2.475 0.99 5 2 C5 2.66 5 3.32 5 4 C4.34 4 3.68 4 3 4 C2.67 5.32 2.34 6.64 2 8 C0.23537317 4.91190305 0 3.76687864 0 0 Z " fill="#CDD4E9" transform="translate(54,37)"/>
<path d="M0 0 C3.375 0.3125 3.375 0.3125 7 1 C7.66 1.99 8.32 2.98 9 4 C6 5 6 5 2.8125 3.5625 C1.884375 3.046875 0.95625 2.53125 0 2 C0 1.34 0 0.68 0 0 Z " fill="#B7C2E5" transform="translate(69,62)"/>
<path d="M0 0 C1.32 0 2.64 0 4 0 C3.875 1.875 3.875 1.875 3 4 C-0.0625 5.25 -0.0625 5.25 -3 6 C-2.01 4.02 -1.02 2.04 0 0 Z " fill="#232E66" transform="translate(43,41)"/>
<path d="M0 0 C1 3 1 3 0 6 C0.66 6 1.32 6 2 6 C2 6.66 2 7.32 2 8 C0.35 7.67 -1.3 7.34 -3 7 C-2.67 5.35 -2.34 3.7 -2 2 C-1.34 2 -0.68 2 0 2 C0 1.34 0 0.68 0 0 Z " fill="#16307E" transform="translate(8,59)"/>
<path d="M0 0 C6.75 0.875 6.75 0.875 9 2 C9 2.66 9 3.32 9 4 C4.545 3.01 4.545 3.01 0 2 C0 1.34 0 0.68 0 0 Z " fill="#1D2F70" transform="translate(61,8)"/>
<path d="M0 0 C1.32 0.33 2.64 0.66 4 1 C4 3.64 4 6.28 4 9 C3.67 9 3.34 9 3 9 C2.67 7.35 2.34 5.7 2 4 C1.34 4 0.68 4 0 4 C0 2.68 0 1.36 0 0 Z " fill="#08216D" transform="translate(5,66)"/>
<path d="M0 0 C0 0.66 0 1.32 0 2 C-1.65 2 -3.3 2 -5 2 C-5.33 2.99 -5.66 3.98 -6 5 C-6.99 5.33 -7.98 5.66 -9 6 C-8.00269864 3.5067466 -7.34925469 2.22532561 -5.0625 0.75 C-3 0 -3 0 0 0 Z " fill="#102060" transform="translate(53,61)"/>
<path d="M0 0 C-0.33 0.66 -0.66 1.32 -1 2 C-3.7696959 2.72886734 -6.12862585 3 -9 3 C-7 0 -7 0 -4.5 -0.75 C-2 -1 -2 -1 0 0 Z " fill="#BDC8EB" transform="translate(39,44)"/>
<path d="M0 0 C1.32 0.33 2.64 0.66 4 1 C4 1.66 4 2.32 4 3 C2.66666667 4.33333333 1.33333333 5.66666667 0 7 C-0.66 7 -1.32 7 -2 7 C-1.42415568 4.61435923 -0.77772405 2.33317216 0 0 Z " fill="#1C2F78" transform="translate(30,40)"/>
<path d="M0 0 C5.53846154 0.61538462 5.53846154 0.61538462 7.875 2.5625 C8.431875 3.2740625 8.431875 3.2740625 9 4 C8.01 4.495 8.01 4.495 7 5 C4.5249829 3.88568235 2.32116581 2.41849022 0 1 C0 0.67 0 0.34 0 0 Z " fill="#2C3F7A" transform="translate(69,20)"/>
<path d="M0 0 C-1.39332574 3.36720387 -2.9789286 4.9859524 -6 7 C-5.37162381 3.35541809 -4.14650034 0 0 0 Z " fill="#DBE0F1" transform="translate(72,93)"/>
<path d="M0 0 C2.97 0 5.94 0 9 0 C9 0.33 9 0.66 9 1 C7.35 1 5.7 1 4 1 C4 1.66 4 2.32 4 3 C2.68 3 1.36 3 0 3 C0 2.01 0 1.02 0 0 Z " fill="#D5DDF4" transform="translate(50,25)"/>
</svg>
